<svg id="delivery_dining_black_24dp" xmlns="http://www.w3.org/2000/svg" width="24" height="24" viewBox="0 0 24 24">
  <g id="Grupo_9614" data-name="Grupo 9614">
    <rect id="Ret창ngulo_2175" data-name="Ret창ngulo 2175" width="24" height="24" fill="none"/>
  </g>
  <g id="Grupo_9617" data-name="Grupo 9617">
    <g id="Grupo_9616" data-name="Grupo 9616">
      <g id="Grupo_9615" data-name="Grupo 9615">
        <path id="Caminho_1267" data-name="Caminho 1267" d="M19,7a2.006,2.006,0,0,0-2-2H14V7h3V9.65L13.52,14H10V9H6a4,4,0,0,0-4,4v3H4a3,3,0,0,0,6,0h4.48L19,10.35ZM4,14V13a2.006,2.006,0,0,1,2-2H8v3Zm3,3a1,1,0,0,1-1-1H8A1,1,0,0,1,7,17Z" fill="#fff"/>
        <rect id="Ret창ngulo_2176" data-name="Ret창ngulo 2176" width="5" height="2" transform="translate(5 6)" fill="#fff"/>
        <path id="Caminho_1268" data-name="Caminho 1268" d="M19,13a3,3,0,1,0,3,3A3,3,0,0,0,19,13Zm0,4a1,1,0,1,1,1-1A1,1,0,0,1,19,17Z" fill="#fff"/>
      </g>
    </g>
  </g>
</svg>
