<svg xmlns="http://www.w3.org/2000/svg" xmlns:xlink="http://www.w3.org/1999/xlink" width="100" height="50" viewBox="0 0 100 50">
  <defs>
    <clipPath id="clip-path">
      <rect id="Retângulo_932" data-name="Retângulo 932" width="100" height="50" fill="none"/>
    </clipPath>
  </defs>
  <g id="pigz-logotipo-branco" transform="translate(100 50)">
    <g id="Grupo_636" data-name="Grupo 636" transform="translate(-100 -50)" clip-path="url(#clip-path)">
      <path id="Caminho_1" data-name="Caminho 1" d="M402.846,13.992A4.146,4.146,0,1,0,398.7,9.846a4.146,4.146,0,0,0,4.146,4.146" transform="translate(-315.638 -4.513)" fill="#fa641e"/>
      <path id="Caminho_2" data-name="Caminho 2" d="M402.846,192.7a4.146,4.146,0,1,0,4.146,4.146,4.146,4.146,0,0,0-4.146-4.146" transform="translate(-315.638 -152.554)" fill="#fa641e"/>
      <path id="Caminho_3" data-name="Caminho 3" d="M379.8,72.221h-7.458a12.179,12.179,0,0,0-2.479.167v-.1a16.337,16.337,0,0,0,2.479-2.542L381.2,58.554a4.554,4.554,0,0,0,1.292-3.292v-.729c0-1.521-1.021-2.333-2.979-2.333h-18.9a3.242,3.242,0,0,0-2.063.6,3.092,3.092,0,0,0-.917,2.354v1.9a2.983,2.983,0,0,0,.75,2.208,3.016,3.016,0,0,0,2.208.75h6.812a18.5,18.5,0,0,0,2.438-.1v.1a17.716,17.716,0,0,0-2.438,2.542l-8.917,11.125a4.554,4.554,0,0,0-1.292,3.292v.708c0,1.521,1.021,2.333,2.979,2.333H379.8a2.955,2.955,0,0,0,2.354-.9,2.849,2.849,0,0,0,.625-2.062v-1.9a2.664,2.664,0,0,0-2.979-2.979" transform="translate(-282.783 -41.325)" fill="#fa641e"/>
      <path id="Caminho_4" data-name="Caminho 4" d="M165.046.688A3.223,3.223,0,0,0,162.838,0H159.5a2.953,2.953,0,0,0-2.562,1.083A2.928,2.928,0,0,0,156.4,3.1V4.521a3.14,3.14,0,0,0,.792,2.313,3.14,3.14,0,0,0,2.312.792h3.333a3.583,3.583,0,0,0,1.875-.438,2.889,2.889,0,0,0,1.229-2.667V3.1a3.082,3.082,0,0,0-.917-2.437" transform="translate(-123.817 0)" fill="#fa641e"/>
      <path id="Caminho_5" data-name="Caminho 5" d="M162.8,52.3h-3.417a2.667,2.667,0,0,0-2.979,2.979V77.154a3.088,3.088,0,0,0,.625,2.063,3.2,3.2,0,0,0,2.354.9h3.4a2.934,2.934,0,0,0,2.271-.813,2.973,2.973,0,0,0,.708-2.146V55.279a3.019,3.019,0,0,0-.708-2.167,3.094,3.094,0,0,0-2.271-.812" transform="translate(-123.817 -41.404)" fill="#fa641e"/>
      <path id="Caminho_6" data-name="Caminho 6" d="M237.137,49.446H234.6c-1.937,0-2.979,1.021-2.979,2.333v.1a2.458,2.458,0,0,0,.063.542h-.1S229.908,48.8,223.95,48.8c-8.708,0-12.75,6.6-12.75,13.667s4.167,14,12.708,14a7.479,7.479,0,0,0,6.813-3.4h.1s-.062.708-.062,1.021v1.417c0,4.1-3.021,5.354-6.542,5.354a15.291,15.291,0,0,1-4.979-.75c-2-.646-3.083-.1-3.792,1.729l-.6,1.625c-.708,1.9-.208,3.083,1.625,3.833a24.033,24.033,0,0,0,8.271,1.354c7.083,0,15.354-3.729,15.354-13.9V52.425a2.664,2.664,0,0,0-2.979-2.979M225.95,68.7c-3.729,0-5.354-3.083-5.354-6.542s1.667-5.563,4.979-5.563c2.813,0,5.4,1.083,5.4,6s-2.6,6.1-5.021,6.1" transform="translate(-167.2 -38.633)" fill="#fa641e"/>
      <path id="Caminho_7" data-name="Caminho 7" d="M18.159.4H2.972a3.135,3.135,0,0,0-2.187.708A3.054,3.054,0,0,0-.007,3.379V36.088A3.417,3.417,0,0,0,.43,37.879a2.776,2.776,0,0,0,2.542,1.187h3.5a3.258,3.258,0,0,0,1.958-.542,3.221,3.221,0,0,0,1.021-2.437V27.879H9.243a9.115,9.115,0,0,1-5.792-2.667h0a12.625,12.625,0,0,0,6.854,1.9h7.854c7.521,0,12.6-5.625,12.6-13.4S25.659.4,18.159.4M9.409,17.9a4.146,4.146,0,1,1,4.146-4.146A4.146,4.146,0,0,1,9.409,17.9m11.938,0a4.146,4.146,0,1,1,4.146-4.146A4.146,4.146,0,0,1,21.347,17.9" transform="translate(0.007 -0.317)" fill="#fa641e"/>
    </g>
  </g>
</svg>
