<svg xmlns="http://www.w3.org/2000/svg" width="28" height="28" viewBox="0 0 28 28">
  <g id="Grupo_3686" data-name="Grupo 3686" transform="translate(356 3324)">
    <path id="user" d="M15.71,12.71a6,6,0,1,0-7.42,0,10,10,0,0,0-6.22,8.18,1.006,1.006,0,1,0,2,.22,8,8,0,0,1,15.9,0,1,1,0,0,0,1,.89h.11a1,1,0,0,0,.88-1.1,10,10,0,0,0-6.25-8.19ZM12,12a4,4,0,1,1,4-4A4,4,0,0,1,12,12Z" transform="translate(-354.015 -3321.994)" fill="#9f9f9f"/>
    <rect id="Retângulo_5668" data-name="Retângulo 5668" width="28" height="28" transform="translate(-356 -3324)" fill="none"/>
  </g>
</svg>
