<svg xmlns="http://www.w3.org/2000/svg" width="21.888" height="21.888" viewBox="0 0 21.888 21.888">
  <g id="Grupo_9638" data-name="Grupo 9638" transform="translate(-80.917 -12.021)">
    <path id="Caminho_1271" data-name="Caminho 1271" d="M10.208,6.925v3.283H6.925V6.925h3.283M11.85,5.283H5.283V11.85H11.85V5.283Zm-1.642,10.4v3.283H6.925V15.68h3.283m1.642-1.642H5.283V20.6H11.85V14.038Zm7.114-7.114v3.283H15.68V6.925h3.283M20.6,5.283H14.038V11.85H20.6V5.283Zm-6.566,8.755H15.68V15.68H14.038ZM15.68,15.68h1.642v1.642H15.68Zm1.642-1.642h1.642V15.68H17.322Zm-3.283,3.283H15.68v1.642H14.038Zm1.642,1.642h1.642V20.6H15.68Zm1.642-1.642h1.642v1.642H17.322Zm1.642-1.642H20.6v1.642H18.963Zm0,3.283H20.6V20.6H18.963ZM23.888,7.472H21.7V4.189H18.416V2h5.472Zm0,16.416V18.416H21.7V21.7H18.416v2.189ZM2,23.888H7.472V21.7H4.189V18.416H2ZM2,2V7.472H4.189V4.189H7.472V2Z" transform="translate(78.917 10.021)" fill="#fff"/>
  </g>
</svg>
